# xmcd
#
# Track frame offsets:
#   150
#   20886
#   33714
#   51428
#   66384
#   77914
#   91569
#   106464
#   121776
#   138600
#   153270
#   166774
#   184760
#
# Disc length: 2756 seconds
#
# Revision: 0
# Processed by: cddbd v1.5.1PL0 Copyright (c) Steve Scherf et al.
# Submitted via: threefifteen 2.8.0
#
DISCID=ae0ac20d
DTITLE=Burrito Deluxe - The Whole Enchilada
DYEAR=2004
DGENRE=Country
TTITLE0=You Got Gold   
TTITLE1=The Letter   
TTITLE2=Woman Like You   
TTITLE3=Sister                                     
TTITLE4=Ezekial's Wheel
TTITLE5=Zydeco Ball        
TTITLE6=Everywhere I Go       
TTITLE7=All I Had Left (Left With You) 
TTITLE8=Memphis Money  
TTITLE9=Way Back In The Mountains                                   
TTITLE10=Baton Rouge     
TTITLE11=Last Letter Home         
TTITLE12=Rex Rob Lowenstein        
EXTD=
EXTT0=
EXTT1=
EXTT2=
EXTT3=
EXTT4=
EXTT5=
EXTT6=
EXTT7=
EXTT8=
EXTT9=
EXTT10=
EXTT11=
EXTT12=
PLAYORDER=
